<?xml version="1.0" encoding="UTF-8" standalone="no"?>
<svg
   xmlns:dc="http://purl.org/dc/elements/1.1/"
   xmlns:cc="http://creativecommons.org/ns#"
   xmlns:rdf="http://www.w3.org/1999/02/22-rdf-syntax-ns#"
   xmlns:svg="http://www.w3.org/2000/svg"
   xmlns="http://www.w3.org/2000/svg"
   id="svg8"
   version="1.1"
   viewBox="0 0 105.83333 13.229167"
   height="50"
   width="400">
  <defs
     id="defs2" />
  <metadata
     id="metadata5">
    <rdf:RDF>
      <cc:Work
         rdf:about="">
        <dc:format>image/svg+xml</dc:format>
        <dc:type
           rdf:resource="http://purl.org/dc/dcmitype/StillImage" />
        <dc:title></dc:title>
      </cc:Work>
    </rdf:RDF>
  </metadata>
  <g
     transform="translate(0,-283.77082)"
     id="layer1">
    <g
       id="g4545"
       transform="matrix(0.35277777,0,0,-0.35277777,14.91129,75.703667)">
      <g
         id="g4547"
         transform="scale(0.1)">
        <path
           d="M -75.351308,-6244.9599 H -391.12555 v 315.7765 h 315.774242 v -315.7765"
           style="fill:#231f20;fill-opacity:1;fill-rule:nonzero;stroke:none;stroke-width:0.55698985"
           id="path4549" />
        <path
           d="m -257.08037,-6019.1028 23.8464,23.8487 23.8503,-23.8487 13.18952,13.194 -23.83972,23.8548 23.83972,23.8375 -13.18952,13.2023 -23.8503,-23.8442 -23.8464,23.8442 -13.19788,-13.2023 23.85031,-23.8375 -23.85031,-23.8548 13.19788,-13.194"
           style="fill:#ffffff;fill-opacity:1;fill-rule:nonzero;stroke:none;stroke-width:0.55698985"
           id="path4551" />
        <path
           d="m -257.08037,-6106.8593 23.8464,23.8464 23.8503,-23.8464 13.18952,13.1895 -23.83972,23.857 23.83972,23.8375 -13.18952,13.2023 -23.8503,-23.8436 -23.8464,23.8436 -13.19788,-13.2023 23.85031,-23.8375 -23.85031,-23.857 13.19788,-13.1895"
           style="fill:#ffffff;fill-opacity:1;fill-rule:nonzero;stroke:none;stroke-width:0.55698985"
           id="path4553" />
        <path
           d="m -257.08037,-6229.0009 23.8464,23.8462 23.8503,-23.8462 13.18952,13.196 -23.83972,23.8504 23.83972,23.8419 -13.18952,13.1957 -23.8503,-23.8397 -23.8464,23.8397 -13.19788,-13.1957 23.85031,-23.8419 -23.85031,-23.8504 13.19788,-13.196"
           style="fill:#ffffff;fill-opacity:1;fill-rule:nonzero;stroke:none;stroke-width:0.55698985"
           id="path4555" />
        <path
           d="m -161.46305,-6018.7546 -27.4362,-1.2599 c 0,0 3.91675,-28.9696 2.25859,-58.2333 -1.59466,-27.9431 -5.99878,-32.8541 -5.99878,-32.8541 -6.19818,-11.6355 -25.39038,-14.4683 -35.20342,-15.2259 -9.84313,-0.7719 -14.23778,-0.2389 -14.23778,-0.2389 0,0 -28.31513,1.0878 -34.66593,14.2729 -3.61876,7.5126 -4.3824,22.2578 -4.3824,22.2578 0,0 -0.16709,69.0991 -0.41774,70.6592 -0.15874,0.8355 -5.72864,-0.6093 -12.1797,-0.5704 -5.25185,0.016 -12.93664,0.3593 -12.93664,0.3593 l 2.27586,-50.7601 -0.3069,-30.0012 c 0,0 0,-16.0942 4.12952,-22.5124 6.96683,-10.8964 14.72291,-14.7909 19.12703,-16.8534 4.39465,-2.0887 11.38097,-4.1641 19.1443,-5.7158 7.75664,-1.5663 20.70832,-2.3606 37.77282,2.0129 17.07508,4.3991 24.62508,12.1407 24.62508,12.1407 l 12.94165,12.1625 -0.0395,-28.7463 27.18167,8.0001 c 0,0 -3.58758,22.7803 -3.54859,61.593 0.039,38.8261 1.89711,59.5133 1.89711,59.5133"
           style="fill:#ffffff;fill-opacity:1;fill-rule:nonzero;stroke:none;stroke-width:0.55698985"
           id="path4557" />
        <path
           d="m 1514.4759,-6018.1108 -24.2179,62.433 h -0.4567 l -20.7145,-62.433 z m -48.2631,-8.5286 -9.5914,-30.9825 c -1.7545,-5.6964 -2.6011,-10.6937 -2.6011,-14.21 0,-7.1885 10.2374,-8.718 16.1638,-8.718 1.9272,0 2.3951,-1.2944 2.3951,-4.1557 0,-2.1694 -0.2507,-3.0679 -1.7713,-3.0679 -4.9962,0 -20.9428,1.1207 -26.8413,1.1207 -5.8707,0 -15.0554,-1.1207 -21.6279,-1.1207 -4.3501,0 -4.3501,0.6812 -4.3501,3.5141 v 2.4151 c 0,1.0766 1.9383,1.5117 7.2019,1.9578 11.357,1.0839 12.9054,3.2595 17.0606,15.291 l 43.2112,125.7188 c 4.339,3.6878 8.9286,8.7425 14.3592,10.4831 l 54.8245,-138.1925 c 3.6985,-9.1664 7.6364,-13.7465 20.3023,-13.7465 2.3951,0 2.8295,-2.6257 2.8295,-5.0191 0,-2.4218 -1.5038,-2.4218 -4.1217,-2.4218 -3.548,0 -17.495,1.1207 -26.0114,1.1207 -8.7281,0 -17.4728,-0.4395 -26.1897,-1.1207 -3.2639,0 -3.4923,0.6812 -3.4923,3.7313 0,2.3828 1.3089,3.4923 4.3779,3.4923 3.2918,0 13.9638,0.6634 13.9638,5.9024 0,1.7406 -0.8689,5.2374 -3.9268,12.8743 l -13.9637,35.1338 h -52.2011"
           style="fill:#040606;fill-opacity:1;fill-rule:nonzero;stroke:none;stroke-width:0.55698985"
           id="path4559" />
        <path
           d="m 1258.2383,-6030.0186 c 0,27.4144 -18.7482,55.3035 -48.1072,55.3035 -30.1777,0 -44.6984,-23.6504 -44.6984,-51.1913 0,-27.9146 16.9603,-56.7868 47.3107,-56.7868 30.0106,0 45.4949,24.6145 45.4949,52.6746 m -110.2394,-1.2833 c 0,34.0894 29.1751,61.9757 62.9566,61.9757 34.2381,0 64.75,-23.4872 64.75,-57.4068 0,-32.81 -31.6426,-62.3199 -64.1262,-62.3199 -34.0655,0 -63.5804,22.1515 -63.5804,57.751"
           style="fill:#040606;fill-opacity:1;fill-rule:nonzero;stroke:none;stroke-width:0.55698985"
           id="path4561" />
        <path
           d="m 1295.6569,-5989.8976 c 0,9.9384 -1.6208,12.0817 -11.2233,12.0817 h -2.785 c -2.9186,-0.1849 -4.222,0.3197 -4.222,1.3162 0,1.3056 0,4.0799 1.8158,4.0799 h 66.8388 c 5.5365,0 11.0841,0.7982 16.7988,0.7982 0.9692,0 2.2948,-0.1677 2.2948,-1.4727 l 0.6517,-18.4068 c 0,-1.1446 0.1727,-2.3021 0.1727,-3.4444 0,-0.6528 -1.3034,-0.9575 -2.9577,-0.9575 h -2.434 c -0.3398,1.9322 -0.6573,3.9056 -1.1363,5.6852 l -1.4648,5.0591 c -1.788,6.3792 -6.528,7.3428 -11.5966,7.3428 h -22.8477 c -12.0755,0 -13.2174,-3.7313 -13.2174,-15.6653 v -28.7045 h 24.1734 c 14.0027,0 17.4393,3.9117 17.4393,12.8871 1.6209,0.3587 3.264,0.831 4.4058,0.831 0.6517,0 0.9915,-0.3414 0.9915,-1.1574 0,-1.2794 -0.6573,-3.7447 -0.6573,-15.6548 0,-4.7388 0.6573,-13.2129 0.6573,-16.7988 0,-1.4665 -1.1363,-2.1082 -2.9521,-2.1082 -1.3033,0 -1.7935,1.451 -2.4452,4.0727 -1.1306,6.6861 -4.3946,12.5607 -18.2692,12.5607 h -23.3435 v -42.749 c 0,-6.353 0.8578,-9.7841 9.1737,-10.4435 l 8.4718,-0.6484 c 0.8076,0 1.1084,-0.9942 1.1084,-2.097 0,-1.3229 0,-3.2707 -1.7601,-3.2707 -12.2482,0 -17.4616,0.801 -25.1314,0.801 -6.6894,0 -18.7427,-0.801 -23.1373,-0.801 -1.3368,0 -1.3368,1.632 -1.3368,2.9003 0,0.9903 0.1726,2.4674 0.8466,2.4674 l 7.1796,0.4852 c 8.6166,0.6594 9.8977,2.6111 9.8977,12.2237 v 78.7878"
           style="fill:#040606;fill-opacity:1;fill-rule:nonzero;stroke:none;stroke-width:0.55698985"
           id="path4563" />
        <path
           d="m 27.811562,-5957.8968 c 0,17.2037 -10.46584,17.2037 -22.44947,17.2037 l -1.0794502,0.8985 v 3.6922 c 0,2.389 1.5211402,2.6107 3.9167502,2.6107 5.66515,0 19.61217,-1.1029 29.85299,-1.1029 10.87466,0 21.97269,1.1029 32.86239,1.1029 l 0.66394,-0.6528 v -5.6501 l -1.08613,-0.8985 h -2.5978 c -14.16815,0 -20.48887,-1.5016 -20.48887,-17.8565 v -63.1576 c 0,-31.363 6.11407,-55.9814 43.55604,-55.9814 39.000428,0 51.611238,18.7438 51.611238,55.553 v 56.6281 c 0,24.8144 0,23.1017 -19.1443,24.8144 l -0.88172,1.7512 v 4.1446 l 0.66394,1.3056 c 3.91174,0 8.27018,-1.1029 24.59667,-1.1029 9.16861,0 20.70219,1.1029 27.67571,1.1029 l 0.86333,-1.3056 v -4.569 l -1.32006,-1.3268 c -15.8614,0 -21.55328,-0.8705 -21.55328,-11.7424 v -77.7502 c 0,-39.8922 -23.29332,-60.1226 -62.935398,-60.1226 -31.58076,0 -62.72652,11.0919 -62.72652,47.475 v 84.9365"
           style="fill:#040606;fill-opacity:1;fill-rule:nonzero;stroke:none;stroke-width:0.55698985"
           id="path4565" />
        <path
           d="m 188.7844,-5991.8492 c 0,3.2745 -0.15595,4.0944 -0.8132,5.3783 -1.45374,2.8022 -8.65005,8.655 -11.40715,8.8333 l -8.66119,0.4856 c -0.65725,0 -0.82435,1.6248 -0.82435,2.9198 0,0.855 0,2.1321 0.82435,2.1321 5.0686,0 8.96753,0.337 13.03356,0.337 7.52493,0 19.44451,-0.6567 22.36871,-0.9942 l 49.46627,-59.7238 c 7.49708,-9.1274 14.84934,-17.6237 26.60183,-29.3901 h 0.64611 v 71.8166 c 0,10.7744 -3.91564,12.417 -9.15135,12.5651 l -7.00136,0.3375 c -0.66282,0 -0.99701,1.6248 -0.99701,2.7521 0,1.0227 0.49015,2.6368 1.48159,2.6368 3.58145,0 12.07554,-0.8265 20.06835,-0.8265 7.35226,0 15.18911,0.8265 19.75086,0.8265 0.82434,0 0.9803,-0.6567 0.9803,-1.3206 v -3.0896 c 0,-0.8049 -0.33977,-0.9787 -1.46489,-0.9787 h -4.23869 c -11.25676,0 -11.25676,-5.718 -11.25676,-19.5926 v -94.5034 h -3.92678 l -88.13807,100.6977 v -74.9152 c 0,-14.025 1.97174,-15.633 15.99675,-16.1505 0.64611,0 1.14183,-1.4687 1.14183,-2.7526 0,-1.3162 -0.16153,-2.6262 -0.65168,-2.6262 -3.10243,0 -13.52928,0.8204 -20.38583,0.8204 -8.00951,0 -11.61324,-0.8204 -19.08804,-0.8204 -1.00258,0 -1.16968,1.1424 -1.16968,3.2573 0,1.4793 0.1671,2.1215 2.14441,2.1215 6.82313,0 14.67111,1.6209 14.67111,9.9607 v 79.8061"
           style="fill:#040606;fill-opacity:1;fill-rule:nonzero;stroke:none;stroke-width:0.55698985"
           id="path4567" />
        <path
           d="m 347.96653,-6056.8015 c 0,-23.8135 0.49015,-23.9812 16.48689,-24.8145 l 0.82435,-1.1574 v -3.079 c 0,-0.9747 -2.45633,-1.1424 -3.92121,-1.1424 -2.28923,0 -13.22294,0.8204 -19.90682,0.8204 -7.83127,0 -15.84079,-0.8204 -24.31817,-0.8204 -0.64611,0.342 -0.80764,1.3056 -0.80764,2.9526 0.16153,2.0999 0.48459,2.4262 5.20786,2.4262 11.2679,0 11.75248,2.4519 11.75248,14.8667 v 78.0047 c 0,9.3012 -2.76824,11.5926 -16.47575,11.5926 l -0.48459,0.7982 -0.32305,2.6329 c 0.15596,1.7907 1.63198,1.9645 2.60671,1.9645 4.39465,0 9.62479,-0.8332 20.71445,-0.8332 8.15433,0 17.96293,0.8332 24.47971,0.8332 l 0.8132,-1.1708 v -2.9197 l -0.64611,-0.9898 -4.40579,-0.3153 c -6.52792,-0.4856 -11.59652,-1.1641 -11.59652,-8.6595 v -70.99"
           style="fill:#040606;fill-opacity:1;fill-rule:nonzero;stroke:none;stroke-width:0.55698985"
           id="path4569" />
        <path
           d="m 387.1619,-5982.6962 c -1.79351,4.384 -8.31029,5.5442 -12.89988,5.5442 l -0.97474,0.7982 v 4.2537 l 1.79908,0.337 c 6.85654,0 16.81552,-0.8199 20.41368,-0.8199 7.49151,0 14.83264,0.8199 22.33529,0.8199 l 0.49015,-0.5113 -0.49015,-4.569 -7.66418,-0.6528 c -2.60671,-0.1348 -5.54205,-1.1245 -5.54205,-3.5614 0,-1.3161 0.81878,-3.4444 1.46488,-4.9132 l 18.76499,-48.9822 10.62737,-24.2792 c 1.13069,-2.4474 1.29221,-2.9481 1.78793,-2.9481 0.32306,0 0.7965,0.6745 1.45375,2.5894 l 23.34901,61.8777 c 2.60671,7.0063 4.56732,13.0653 4.40022,15.017 -0.1671,2.7632 -0.98587,4.2275 -5.70915,4.6954 l -8.48295,0.8488 -0.98587,0.4891 v 5.0413 c 6.37753,0 12.72165,-0.9614 19.10475,-0.9614 5.06304,0 15.82408,0.9614 16.97148,0.9614 l 1.29778,-0.6528 v -3.7463 l -1.45374,-1.1313 -5.07975,-0.3442 c -3.26953,-0.1348 -4.57288,-1.784 -6.83983,-7.506 -15.5066,-37.3578 -19.26071,-49.1281 -31.6593,-80.6159 l -8.327,-21.2135 c -0.80207,-2.2909 -1.13069,-2.4368 -2.28366,-2.4368 -1.48159,0 -1.79908,0.4896 -2.11656,1.1424 l -43.75155,105.4298"
           style="fill:#040606;fill-opacity:1;fill-rule:nonzero;stroke:none;stroke-width:0.55698985"
           id="path4571" />
        <path
           d="m 514.83511,-5988.4076 c 0,10.5917 -7.99838,11.7447 -17.4672,11.7447 -0.65725,0 -0.65725,0.816 -0.65725,1.4838 v 1.7952 c 0,1.4537 2.78495,1.6164 8.48852,1.6164 6.53349,0 13.87462,-0.8221 20.73673,-0.8221 6.50565,0 13.05585,0.8221 19.58377,0.8221 h 34.43311 c 1.29778,0 1.45931,-1.4855 1.45931,-3.2634 v -19.9146 c 0,-0.6528 -0.32305,-1.2945 -1.13069,-1.2945 -1.30336,0 -3.91007,-0.1894 -4.0883,1.7907 l -0.48459,5.0413 c -1.00258,10.4391 -8.17104,12.256 -17.30567,12.256 h -16.80438 c -9.15691,0 -12.07554,-1.9756 -12.07554,-14.3775 v -29.5249 c 0,-0.4785 0.9803,-1.3095 1.30892,-1.3095 l 19.24957,0.6528 c 9.78631,0.3258 12.5824,3.4371 15.02202,12.0861 0.32305,0.9463 0.81877,1.2989 2.59557,1.2989 1.16968,0 1.98845,-0.1699 1.98845,-0.9903 0,-3.4266 -0.98587,-10.9326 -0.98587,-16.3288 0,-8.7837 0.98587,-13.5482 0.98587,-16.2852 0,-1.0009 -1.64869,-1.9846 -2.62899,-1.9846 -1.29778,0 -2.45075,0.5008 -2.77381,2.1366 -0.80763,4.3886 -0.80763,7.535 -1.62084,9.7863 -0.83548,2.4307 -2.79609,3.5904 -7.68646,3.7319 l -23.17077,0.5152 c -2.28366,0 -2.28366,-0.8372 -2.28366,-1.9578 v -38.859 c 0,-11.7424 8.66119,-12.0577 19.91238,-12.0577 h 8.81158 c 8.64449,0 14.68226,0.1521 18.77613,2.5828 3.59258,2.16 8.63891,12.1078 10.42128,16.1655 2.13884,0 4.91822,-0.4785 4.91822,-1.6209 0,-0.5046 -0.47344,-1.8102 -0.82434,-2.6067 l -4.56732,-16.4791 c -1.30893,-4.4169 -2.12213,-4.4169 -4.24983,-4.4169 -17.61759,0 -34.92327,0.816 -58.58419,0.816 -5.38052,0 -19.09361,-0.816 -27.42618,-0.816 -0.48458,0 -0.9803,1.6476 -0.9803,2.6262 0,1.2839 0.33419,2.7526 0.9803,2.7526 14.23109,0.659 18.12445,2.1255 18.12445,17.1403 v 76.0681"
           style="fill:#040606;fill-opacity:1;fill-rule:nonzero;stroke:none;stroke-width:0.55698985"
           id="path4573" />
        <path
           d="m 637.12779,-6024.1702 c 2.13327,-0.1588 4.06603,-0.3175 6.19373,-0.3175 13.06698,0 29.38678,4.5645 29.38678,23.8263 0,14.3821 -9.80302,23.6832 -24.15665,23.6832 -11.1008,0 -11.42386,-2.639 -11.42386,-7.5171 z m -14.68782,34.7728 c 0,8.1594 -0.33976,12.2454 -10.61066,12.2454 h -6.68387 c -0.98588,0 -1.13069,1.7947 -1.13069,3.0936 0,0.8054 0.47901,2.302 1.13069,2.302 9.44654,0 19.09918,-0.518 28.55686,-0.518 7.49152,0 14.84935,0.518 22.35758,0.518 16.64842,0 32.96822,-11.1069 32.96822,-28.2477 0,-14.8382 -13.55156,-24.8078 -26.27878,-26.7617 v -0.3264 c 6.36083,-1.4838 13.04471,-13.4023 14.69897,-15.9957 l 17.93507,-27.4317 c 5.72028,-8.6445 9.47996,-10.2631 19.25514,-10.7744 l 0.98587,-0.9642 v -3.089 c 0,-1.4799 -1.15297,-1.6476 -1.79351,-1.6476 -3.40878,0 -8.47738,0.479 -10.93928,0.479 -3.9045,0 -7.83128,-0.479 -11.74691,-0.479 -3.73741,0 -11.10081,10.9376 -20.73117,28.0784 -10.59951,18.7767 -16.80995,29.0437 -27.55985,29.0437 -1.32564,0 -3.26953,0 -5.72586,-0.3091 v -40.027 c 0,-5.8484 0,-11.4072 8.16547,-11.4072 6.19373,0 8.96754,0 8.96754,-1.2944 0,-3.1008 -0.48458,-4.0844 -2.93534,-4.0844 -8.47181,0 -15.50102,0.8204 -22.52467,0.8204 -2.7738,0 -20.88711,-0.8204 -23.1652,-0.8204 -0.98587,0 -1.30336,2.126 -1.30336,3.4316 0,1.4465 0.64611,1.7796 3.93235,1.9472 11.24562,0.5175 14.17539,2.1255 14.17539,13.3918 v 78.8268"
           style="fill:#040606;fill-opacity:1;fill-rule:nonzero;stroke:none;stroke-width:0.55698985"
           id="path4575" />
        <path
           d="m 741.47427,-6027.5818 c -11.75249,7.0169 -16.49247,13.5549 -16.49247,26.2721 0,20.3825 16.65956,31.8164 38.6718,31.8164 6.21045,0 15.02205,-2.1328 20.55845,-4.5651 l 1.1363,-20.3976 v -0.8159 c 0,-0.8266 -1.6097,-1.1575 -3.9045,-1.1575 -2.1277,0 -2.434,0.9898 -2.5956,2.6262 -1.1585,10.9332 -8.9842,17.9563 -20.58631,17.9563 -11.08967,0 -19.72301,-7.8218 -19.72301,-18.2977 0,-11.7296 7.15175,-16.3181 23.47712,-24.9448 16.1638,-8.4924 30.2056,-15.9984 30.2056,-36.4071 0,-22.1966 -20.0795,-33.7719 -40.46535,-33.7719 -6.70059,0 -17.8014,2.1366 -24.00626,4.7104 -1.29779,0.6857 -1.78237,2.7789 -2.26138,6.3536 l -1.97175,15.3651 c 0,0.9748 3.26953,0.9748 4.23313,0.9748 0.49015,0 0.9803,-0.322 1.30892,-1.4538 3.75411,-12.417 12.2315,-19.5921 25.30962,-19.5921 11.41272,0 22.34647,9.9495 22.34647,21.0459 0,10.6218 -6.0434,16.9921 -14.5319,22.0378 l -20.70888,12.2449"
           style="fill:#040606;fill-opacity:1;fill-rule:nonzero;stroke:none;stroke-width:0.55698985"
           id="path4577" />
        <path
           d="m 837.80005,-6056.8015 c 0,-23.8135 0.4846,-23.9812 16.4814,-24.8145 l 0.8299,-1.1574 v -3.079 c 0,-0.9747 -2.4619,-1.1424 -3.9491,-1.1424 -2.2669,0 -13.1951,0.8204 -19.9012,0.8204 -7.8369,0 -15.8074,-0.8204 -24.3015,-0.8204 -0.6628,0.342 -0.8132,1.3056 -0.8132,2.9526 0.1504,2.0999 0.479,2.4262 5.2079,2.4262 11.2846,0 11.758,2.4519 11.758,14.8667 v 78.0047 c 0,9.3012 -2.7794,11.5926 -16.4869,11.5926 l -0.479,0.7982 -0.3342,2.6329 c 0.1615,1.7907 1.6376,1.9645 2.6067,1.9645 4.4058,0 9.6248,-0.8332 20.7256,-0.8332 8.1711,0 17.9574,0.8332 24.4964,0.8332 l 0.8077,-1.1708 v -2.9197 l -0.635,-0.9898 -4.4448,-0.3153 c -6.5168,-0.4856 -11.5687,-1.1641 -11.5687,-8.6595 v -70.99"
           style="fill:#040606;fill-opacity:1;fill-rule:nonzero;stroke:none;stroke-width:0.55698985"
           id="path4579" />
        <path
           d="m 924.47325,-6069.5582 c 0,-12.0516 8.1655,-12.0516 18.286,-12.0516 l 0.9859,-0.8221 v -2.6045 c 0,-1.9584 -0.8188,-1.9584 -3.4589,-1.9584 -3.2584,0 -11.2512,0.816 -22.664,0.816 -8.9675,0 -22.9925,-0.816 -26.936,-0.816 -0.3286,1.1363 -0.6517,1.9584 -0.6517,2.9526 0,0.479 0.1727,1.4576 0.6517,1.784 l 1.6543,0.6484 h 1.955 c 14.8549,0 15.5066,5.048 15.5066,18.6073 v 77.3475 l -0.4846,7.506 h -21.873 c -12.4097,0 -14.3814,-7.8218 -17.4672,-18.2804 -0.3286,-0.9747 -0.9858,-1.4532 -1.9661,-1.4532 -2.2726,0 -3.7764,0.6634 -3.7764,1.6382 0,2.7632 1.9829,17.9322 1.9829,30.8349 0,0.6522 2.3003,0.6522 4.5561,0.6522 5.2246,-7.0058 6.8733,-7.0058 13.8969,-7.0058 h 60.6952 c 11.4294,0 14.6878,3.4272 18.7761,8.4746 1.1252,0 4.8793,0 4.8793,-1.4688 0,-1.3094 -3.2529,-14.6861 -3.5926,-26.4503 0,-1.7863 -0.4957,-5.2218 -1.2867,-5.2218 -1.4704,0 -5.2301,0.8311 -5.2301,1.6688 l -0.6517,8.1376 c -0.6349,8.3108 -4.5673,8.474 -11.24,8.474 h -22.547 v -91.4092"
           style="fill:#040606;fill-opacity:1;fill-rule:nonzero;stroke:none;stroke-width:0.55698985"
           id="path4581" />
        <path
           d="m 1024.971,-6035.1028 c 0,1.6531 -0.1615,3.7791 -1.9606,6.4159 l -36.82265,49.7877 c -0.9803,1.486 -2.4563,2.3059 -6.2494,2.4652 l -6.2327,0.3481 -0.9859,0.4829 v 4.2644 l 0.9859,0.4962 h 1.9717 c 2.7905,0 20.38031,-0.816 23.48271,-0.816 4.12174,0 10.70534,0.816 16.11374,0.816 3.6093,0 5.2524,0 5.2524,-0.9964 v -1.9801 c 0,-1.6209 -0.4901,-2.4369 -0.9747,-2.4369 l -9.5301,-0.3375 c -2.3171,0 -3.7931,-0.9725 -3.7931,-2.7888 0,-0.664 0.9747,-2.3065 2.6513,-4.417 l 23.4827,-32.7298 c 1.3144,-1.8169 2.7849,-3.4416 4.4447,-4.9388 3.1136,2.9765 17.5898,22.8672 24.6524,33.2016 2.6346,3.797 4.1217,6.9144 4.1217,8.22 0,2.2954 -1.3368,3.2746 -6.1046,3.4528 l -8.2267,0.3375 c 0.1894,0 0,2.4369 0,3.1114 0,0.8266 0.1894,1.8058 1.0081,2.302 6.3998,-0.6528 14.2868,-0.816 21.355,-0.816 4.779,0 11.9864,0.816 14.1308,0.816 l 0.9915,-0.6528 v -3.7925 l -0.6461,-0.6528 -6.0935,-0.3153 c -5.258,-0.3375 -11.8304,-11.499 -14.9607,-15.7784 l -27.2591,-37.3272 v -38.5955 c 0,-3.455 0.1448,-6.436 0.4846,-7.4146 1.3145,-3.9168 5.581,-6.0924 11.6745,-6.0924 h 4.428 l 1.4761,-0.6528 v -4.5952 l -0.8188,-0.1631 h -2.4786 c -7.2297,0 -14.2812,0.8421 -21.5221,0.8421 -7.3801,0 -14.9607,-0.8421 -22.3353,-0.8421 h -2.3115 l -1.3201,0.3375 v 2.8 c 0,0.9641 0.3287,2.1277 1.6432,2.2736 l 7.7198,0.8489 c 4.7734,0.4896 8.5554,2.1277 8.5554,10.3343 v 35.1779"
           style="fill:#040606;fill-opacity:1;fill-rule:nonzero;stroke:none;stroke-width:0.55698985"
           id="path4583" />
        <path
           d="m 1695.5923,-5972.0499 c 5.0686,0 10.3043,-0.4746 15.5456,-0.4746 4.1106,0 8.3437,0.4746 12.4432,0.4746 2.4507,0 2.952,-0.6378 2.952,-1.1491 v -2.6045 c 0,-1.1418 -0.5013,-1.9689 -1.1753,-1.9689 -1.1306,0 -2.9186,0.3375 -4.907,0.3375 -9.5078,0 -9.5078,-4.7539 -9.5078,-15.4047 0,-9.3296 1.8157,-70.5656 1.8157,-79.5732 0,-4.569 2.306,-9.8275 9.3463,-9.8275 6.5502,0 7.3412,-0.3264 7.3412,-1.8064 0,-1.9645 -0.9581,-3.6003 -1.4482,-3.6003 -8.6891,0 -15.5456,0.8377 -22.4411,0.8377 -6.8622,0 -13.9136,-0.8377 -20.954,-0.8377 -1.153,0 -1.3034,0.6611 -1.3034,1.6358 v 1.6471 c 0,1.6342 1.4816,2.1238 9.0066,2.1238 3.2862,0 6.2104,3.9267 6.2104,9.6643 0,17.6738 -0.6405,55.8299 -1.3033,83.8381 -0.6629,0.1521 -0.4902,0.1521 -0.4902,0.1521 -9.1569,-18.8308 -21.1155,-46.1689 -26.6742,-60.7465 l -15.4342,-40.443 c -0.1226,-0.4784 -0.6239,-0.9725 -1.4593,-0.9725 -0.7854,0 -1.4705,0.8271 -1.9495,3.1008 -0.9636,4.1228 -2.4452,8.039 -4.1106,11.9552 l -30.9408,75.3351 c -1.1529,2.7849 -2.1165,4.7411 -2.7515,4.7411 -0.6962,0 -0.6962,-3.2679 -0.6962,-5.0848 0,-12.9344 -1.9328,-62.3672 -1.9328,-70.4068 0,-7.032 0,-11.1331 14.4093,-11.1331 0.9692,0 1.1363,-0.8054 1.1363,-2.7744 0,-0.6528 -0.1671,-2.6323 -0.8188,-2.6323 -2.3059,0 -10.3099,0.8377 -19.166,0.8377 -9.3017,0 -18.4976,-0.8377 -20.8036,-0.8377 -0.479,0 -0.9747,0.5046 -0.9747,1.3312 v 2.4435 c 0,1.4727 1.3256,1.632 3.2807,1.632 13.429,0 15.384,4.1011 15.384,18.3522 0,8.0218 2.7627,68.2725 2.7627,74.171 0,8.6746 -4.2443,12.2822 -18.9488,12.2822 -0.5013,0 -0.8411,0.7982 -0.8411,1.7946 v 2.126 c 0,0.8266 0.5013,1.4644 1.3312,1.4644 6.2105,0 12.1201,-0.8116 18.6425,-0.8116 4.0939,0 8.3548,0.8116 12.4599,0.8116 1.1641,0 2.3059,-2.6218 3.0968,-4.75 l 35.38,-84.6408 h 0.7742 l 37.7138,89.3908"
           style="fill:#040606;fill-opacity:1;fill-rule:nonzero;stroke:none;stroke-width:0.55698985"
           id="path4585" />
        <path
           d="m 1754.8059,-6028.0385 c -11.836,7.0453 -16.5816,13.605 -16.5816,26.3417 0,20.4911 16.6986,31.9422 38.8055,31.9422 6.2327,0 15.0777,-2.1104 20.6587,-4.5801 l 1.1419,-20.4738 v -0.8116 c 0,-0.8199 -1.6543,-1.1357 -3.9602,-1.1357 -2.1222,0 -2.4229,0.9725 -2.5956,2.6001 -1.1474,10.9699 -9.0121,18.0303 -20.642,18.0303 -11.1176,0 -19.7955,-7.8541 -19.7955,-18.3567 0,-11.777 7.2131,-16.3572 23.5719,-25.0384 16.2306,-8.518 30.3113,-16.0352 30.3113,-36.5135 0,-22.2857 -20.1741,-33.8867 -40.6101,-33.8867 -6.7229,0 -17.8738,2.121 -24.0898,4.7473 -1.3034,0.6461 -1.7935,2.7804 -2.3059,6.3792 l -1.9551,15.389 c 0,0.9792 3.2863,0.9792 4.261,0.9792 0.5236,0 0.9914,-0.3158 1.3089,-1.4688 3.7708,-12.4342 12.3151,-19.6361 25.3876,-19.6361 11.4684,0 22.4244,9.9868 22.4244,21.1049 0,10.6458 -6.0377,17.0294 -14.5597,22.1053 l -20.7757,12.2822"
           style="fill:#040606;fill-opacity:1;fill-rule:nonzero;stroke:none;stroke-width:0.55698985"
           id="path4587" />
        <path
           d="m 1874.0463,-6070.5413 c 0,-12.1346 8.171,-12.1346 18.3305,-12.1346 l 1.0026,-0.8071 v -2.6217 c 0,-1.9779 -0.8299,-1.9779 -3.4589,-1.9779 -3.264,0 -11.2735,0.8377 -22.7475,0.8377 -9.0065,0 -23.0983,-0.8377 -27.014,-0.8377 -0.3565,1.1641 -0.6517,1.9779 -0.6517,2.9481 0,0.5052 0.1727,1.4839 0.6517,1.8147 l 1.6543,0.6439 h 1.9606 c 14.8995,0 15.5567,5.0892 15.5567,18.6725 v 77.6149 l -0.5013,7.5283 h -21.9342 c -12.4543,0 -14.4372,-7.8542 -17.5341,-18.3306 -0.3175,-0.9897 -0.9803,-1.4793 -1.9606,-1.4793 -2.3171,0 -3.743,0.6567 -3.743,1.6253 0,2.791 1.9384,18.0147 1.9384,30.9669 0,0.6422 2.2948,0.6422 4.5896,0.6422 5.2468,-7.0498 6.8677,-7.0498 13.9024,-7.0498 h 60.9013 c 11.474,0 14.7602,3.4489 18.843,8.5225 1.1641,0 4.9182,0 4.9182,-1.4727 0,-1.3167 -3.2751,-14.7301 -3.6037,-26.5333 0,-1.7796 -0.5125,-5.2218 -1.3145,-5.2218 -1.4816,0 -5.2246,0.7987 -5.2246,1.6253 l -0.6517,8.1984 c -0.6739,8.337 -4.5896,8.5069 -11.3124,8.5069 h -22.5971 v -91.6811"
           style="fill:#040606;fill-opacity:1;fill-rule:nonzero;stroke:none;stroke-width:0.55698985"
           id="path4589" />
        <path
           d="m 1942.7788,-5988.7379 c 0,10.6285 -8.0373,11.7926 -17.5173,11.7926 -0.6517,0 -0.6517,0.8199 -0.6517,1.4621 v 1.8058 c 0,1.4749 2.785,1.6275 8.5108,1.6275 6.5335,0 13.9136,-0.8054 20.8092,-0.8054 6.539,0 13.0892,0.8054 19.6116,0.8054 h 34.5835 c 1.2866,0 1.4481,-1.4644 1.4481,-3.264 v -19.9798 c 0,-0.6567 -0.3341,-1.3161 -1.1529,-1.3161 -1.3034,0 -3.9268,-0.146 -4.0883,1.8013 l -0.5013,5.0914 c -0.9803,10.4764 -8.1822,12.2822 -17.328,12.2822 h -16.8879 c -9.1458,0 -12.1034,-1.9756 -12.1034,-14.4038 v -29.6508 c 0,-0.4829 0.9747,-1.3161 1.3368,-1.3161 l 19.2885,0.6528 c 9.8086,0.3436 12.627,3.4372 15.0666,12.1362 0.3231,0.9787 0.8244,1.3162 2.6401,1.3162 1.1307,0 1.9272,-0.1961 1.9272,-0.9965 0,-3.4488 -0.958,-10.9832 -0.958,-16.3727 0,-8.8483 0.958,-13.5916 0.958,-16.3721 0,-0.9904 -1.6097,-1.9735 -2.6123,-1.9735 -1.2922,0 -2.434,0.4941 -2.7738,2.1428 -0.8132,4.393 -0.8132,7.5177 -1.6208,9.8063 -0.8466,2.4541 -2.8184,3.6071 -7.7199,3.7748 l -23.2376,0.479 c -2.2948,0 -2.2948,-0.801 -2.2948,-1.9411 v -38.9954 c 0,-11.7754 8.6779,-12.1084 19.9792,-12.1084 h 8.845 c 8.6835,0 14.7324,0.1743 18.8207,2.6395 3.6372,2.1105 8.6835,12.0906 10.4659,16.1917 2.1555,0 4.9182,-0.4896 4.9182,-1.6253 0,-0.5068 -0.479,-1.8013 -0.8077,-2.6284 l -4.5896,-16.5354 c -1.3033,-4.4319 -2.1109,-4.4319 -4.2498,-4.4319 -17.69,0 -35.0514,0.8416 -58.768,0.8416 -5.4084,0 -19.1716,-0.8416 -27.5153,-0.8416 -0.5013,0 -0.9859,1.6358 -0.9859,2.6323 0,1.31 0.312,2.7744 0.9859,2.7744 14.2311,0.6611 18.169,2.1366 18.169,17.1993 v 76.3031"
           style="fill:#040606;fill-opacity:1;fill-rule:nonzero;stroke:none;stroke-width:0.55698985"
           id="path4591" />
        <path
           d="m 2060.2925,-6024.5941 c 2.1222,-0.1699 4.0995,-0.3376 6.2105,-0.3376 13.0837,0 29.4814,4.5908 29.4814,23.9161 0,14.3926 -9.8253,23.7372 -24.229,23.7372 -11.1509,0 -11.4629,-2.6151 -11.4629,-7.5322 z m -14.7435,34.877 c 0,8.1699 -0.3342,12.2822 -10.6608,12.2822 h -6.7228 c -0.9692,0 -1.1307,1.7885 -1.1307,3.1047 0,0.8159 0.5124,2.2803 1.1307,2.2803 9.5078,0 19.1994,-0.479 28.6849,-0.479 7.5417,0 14.9051,0.479 22.4245,0.479 16.7096,0 33.0796,-11.1398 33.0796,-28.3129 0,-14.8934 -13.585,-24.8841 -26.3568,-26.8598 v -0.3197 c 6.3831,-1.471 13.106,-13.4312 14.7268,-16.0351 l 18.0187,-27.5231 c 5.698,-8.6924 9.4855,-10.3244 19.3275,-10.8134 l 0.958,-0.9686 v -3.1287 c 0,-1.4509 -1.1418,-1.6358 -1.7823,-1.6358 -3.459,0 -8.5387,0.5113 -10.9895,0.5113 -3.9379,0 -7.8535,-0.5113 -11.7692,-0.5113 -3.7763,0 -11.1509,10.9805 -20.798,28.1625 -10.6385,18.8441 -16.8879,29.1617 -27.6991,29.1617 -1.281,0 -3.2639,0 -5.698,-0.3375 v -40.1205 c 0,-5.8857 0,-11.4556 8.1878,-11.4556 6.1937,0 9.0121,0 9.0121,-1.2945 0,-3.1113 -0.479,-4.1161 -2.9855,-4.1161 -8.5164,0 -15.5344,0.8377 -22.5803,0.8377 -2.7627,0 -20.9206,-0.8377 -23.2377,-0.8377 -0.9914,0 -1.32,2.1254 -1.32,3.4527 0,1.4688 0.6461,1.7947 3.9212,1.9579 11.2902,0.494 14.2589,2.1327 14.2589,13.4418 v 79.0775"
           style="fill:#040606;fill-opacity:1;fill-rule:nonzero;stroke:none;stroke-width:0.55698985"
           id="path4593" />
        <path
           d="m 2177.7561,-6063.1222 c 0,-18.0198 18.5199,-18.0198 25.6995,-18.0198 22.4189,0 46.3193,18.4982 46.3193,52.7336 0,29.1484 -15.696,43.5583 -27.0196,50.0962 -7.848,3.4378 -18.169,4.2605 -25.1982,4.2605 -13.4123,0 -19.801,-0.9681 -19.801,-11.4729 z m -14.7602,73.0353 c 0,6.2115 -1.2811,12.5974 -7.3634,12.5974 -1.9606,0 -7.1796,-0.6528 -10.3043,-0.6528 -0.6628,0 -0.6628,2.4524 -0.6628,3.2679 0,0.9859 0,1.4799 2.796,2.1171 10.9895,2.3065 37.1513,4.1011 51.2153,4.1011 9.0288,0 17.5507,-0.8221 25.5769,-2.9325 22.2462,-6.0746 43.0498,-25.8806 43.0498,-56.0037 0,-40.5995 -33.9096,-58.9563 -65.0119,-58.9563 -15.5567,0 -23.75,0.6679 -31.8988,0.6679 -8.21,0 -16.3811,-0.4829 -24.5744,-0.6679 -0.6517,0 -0.8132,1.4733 -0.8132,2.6374 0,1.1418 0.8132,2.7693 1.4649,2.7693 5.258,0.664 9.4744,0.9904 12.4599,2.9593 2.4452,1.6359 4.066,4.2621 4.066,9.4839 v 78.6119"
           style="fill:#040606;fill-opacity:1;fill-rule:nonzero;stroke:none;stroke-width:0.55698985"
           id="path4595" />
        <path
           d="m 2332.5937,-6035.4142 -18.1746,46.8284 h -0.3509 l -15.501,-46.8284 z m -36.2043,-6.3748 -7.1796,-23.252 c -1.3368,-4.2493 -1.955,-8.0246 -1.955,-10.6508 0,-5.3911 7.692,-6.5485 12.1145,-6.5485 1.4482,0 1.7879,-0.9748 1.7879,-3.0963 0,-1.6426 -0.1726,-2.3104 -1.3089,-2.3104 -3.7708,0 -15.7071,0.8377 -20.1463,0.8377 -4.417,0 -11.2902,-0.8377 -16.1973,-0.8377 -3.2751,0 -3.2751,0.5046 -3.2751,2.6368 v 1.7951 c 0,0.8155 1.4927,1.1597 5.4084,1.4727 8.5052,0.8227 9.647,2.4608 12.7606,11.4617 l 32.4057,94.3079 c 3.2639,2.7738 6.7228,6.5491 10.8167,7.8758 l 41.1003,-103.6563 c 2.8017,-6.8644 5.7537,-10.3021 15.2281,-10.3021 1.8158,0 2.1333,-1.9913 2.1333,-3.7753 0,-1.8163 -1.1307,-1.8163 -3.1025,-1.8163 -2.6122,0 -13.1059,0.8377 -19.4946,0.8377 -6.5613,0 -13.106,-0.3331 -19.6562,-0.8377 -2.4507,0 -2.6123,0.5046 -2.6123,2.8105 0,1.7908 0.9915,2.5962 3.264,2.5962 2.4563,0 10.4993,0.4979 10.4993,4.4381 0,1.295 -0.6517,3.9167 -2.9632,9.6498 l -10.4603,26.3634 h -39.1675"
           style="fill:#040606;fill-opacity:1;fill-rule:nonzero;stroke:none;stroke-width:0.55698985"
           id="path4597" />
        <path
           d="m 2493.7754,-5972.0499 c 5.0909,0 10.3211,-0.4746 15.5679,-0.4746 4.066,0 8.3549,0.4746 12.4432,0.4746 2.4507,0 2.9297,-0.6378 2.9297,-1.1491 v -2.6045 c 0,-1.1418 -0.479,-1.9689 -1.114,-1.9689 -1.1641,0 -2.9799,0.3375 -4.9349,0.3375 -9.48,0 -9.48,-4.7539 -9.48,-15.4047 0,-9.3296 1.788,-70.5656 1.788,-79.5732 0,-4.569 2.3059,-9.8275 9.3407,-9.8275 6.5168,0 7.3801,-0.3264 7.3801,-1.8064 0,-1.9645 -1.0026,-3.6003 -1.4927,-3.6003 -8.6891,0 -15.5456,0.8377 -22.43,0.8377 -6.8788,0 -13.9136,-0.8377 -20.9762,-0.8377 -1.1419,0 -1.2922,0.6611 -1.2922,1.6358 v 1.6471 c 0,1.6342 1.4648,2.1238 8.9842,2.1238 3.2862,0 6.2104,3.9267 6.2104,9.6643 0,17.6738 -0.6182,55.8299 -1.2699,83.8381 -0.6517,0.1521 -0.5124,0.1521 -0.5124,0.1521 -9.1737,-18.8308 -21.1155,-46.1689 -26.6743,-60.7465 l -15.384,-40.443 c -0.1727,-0.4784 -0.6851,-0.9725 -1.4816,-0.9725 -0.8244,0 -1.4649,0.8271 -1.9773,3.1008 -0.9692,4.1228 -2.4452,8.039 -4.0883,11.9552 l -30.9408,75.3351 c -1.153,2.7849 -2.1222,4.7411 -2.7738,4.7411 -0.6517,0 -0.6517,-3.2679 -0.6517,-5.0848 0,-12.9344 -1.994,-62.3672 -1.994,-70.4068 0,-7.032 0,-11.1331 14.4149,-11.1331 1.0025,0 1.1418,-0.8054 1.1418,-2.7744 0,-0.6528 -0.1393,-2.6323 -0.8244,-2.6323 -2.2613,0 -10.3043,0.8377 -19.1493,0.8377 -9.3407,0 -18.5143,-0.8377 -20.7757,-0.8377 -0.4901,0 -0.9692,0.5046 -0.9692,1.3312 v 2.4435 c 0,1.4727 1.2867,1.632 3.2306,1.632 13.4457,0 15.4175,4.1011 15.4175,18.3522 0,8.0218 2.7849,68.2725 2.7849,74.171 0,8.6746 -4.2331,12.2822 -19.0156,12.2822 -0.4567,0 -0.8188,0.7982 -0.8188,1.7946 v 2.126 c 0,0.8266 0.5013,1.4644 1.3256,1.4644 6.2272,0 12.109,-0.8116 18.7038,-0.8116 4.0548,0 8.3102,0.8116 12.3986,0.8116 1.1641,0 2.3003,-2.6218 3.1247,-4.75 l 35.3577,-84.6408 h 0.8243 l 37.6525,89.3908"
           style="fill:#040606;fill-opacity:1;fill-rule:nonzero;stroke:none;stroke-width:0.55698985"
           id="path4599" />
      </g>
    </g>
  </g>
</svg>
